<mxfile host="app.diagrams.net" modified="2021-05-10T01:44:19.597Z" agent="5.0 (Windows NT 10.0; Win64; x64) AppleWebKit/537.36 (KHTML, like Gecko) Chrome/90.0.4430.93 Safari/537.36" etag="G3rZxxgrntyrxQ9wCHgW" version="14.6.11" type="github">
  <diagram id="jeHCSaBuN6KlRn2Si4zA" name="Page-1">
    <mxGraphModel dx="1038" dy="585" grid="1" gridSize="10" guides="1" tooltips="1" connect="1" arrows="1" fold="1" page="1" pageScale="1" pageWidth="827" pageHeight="1169" math="0" shadow="0">
      <root>
        <mxCell id="0" />
        <mxCell id="1" parent="0" />
        <mxCell id="ndujK713as-puRevWrVf-1" value="Start" style="ellipse;whiteSpace=wrap;html=1;" vertex="1" parent="1">
          <mxGeometry x="370" y="30" width="120" height="80" as="geometry" />
        </mxCell>
        <mxCell id="ndujK713as-puRevWrVf-8" style="edgeStyle=orthogonalEdgeStyle;rounded=0;orthogonalLoop=1;jettySize=auto;html=1;exitX=0.25;exitY=1;exitDx=0;exitDy=0;entryX=0.25;entryY=0;entryDx=0;entryDy=0;" edge="1" parent="1" source="ndujK713as-puRevWrVf-2" target="ndujK713as-puRevWrVf-3">
          <mxGeometry relative="1" as="geometry" />
        </mxCell>
        <mxCell id="ndujK713as-puRevWrVf-2" value="Enter unit price" style="shape=parallelogram;perimeter=parallelogramPerimeter;whiteSpace=wrap;html=1;fixedSize=1;" vertex="1" parent="1">
          <mxGeometry x="375" y="170" width="120" height="60" as="geometry" />
        </mxCell>
        <mxCell id="ndujK713as-puRevWrVf-3" value="Enter number of copies" style="shape=parallelogram;perimeter=parallelogramPerimeter;whiteSpace=wrap;html=1;fixedSize=1;" vertex="1" parent="1">
          <mxGeometry x="370" y="240" width="120" height="60" as="geometry" />
        </mxCell>
        <mxCell id="ndujK713as-puRevWrVf-4" value="Calculate 1 subtotal = unit price * copies&lt;br&gt;GST = 0.07 * subtotal&lt;br&gt;Total = Subtotal + GST" style="rounded=1;whiteSpace=wrap;html=1;" vertex="1" parent="1">
          <mxGeometry x="370" y="320" width="120" height="60" as="geometry" />
        </mxCell>
        <mxCell id="ndujK713as-puRevWrVf-5" value="Display subtotal" style="shape=parallelogram;perimeter=parallelogramPerimeter;whiteSpace=wrap;html=1;fixedSize=1;" vertex="1" parent="1">
          <mxGeometry x="370" y="420" width="120" height="60" as="geometry" />
        </mxCell>
        <mxCell id="ndujK713as-puRevWrVf-6" value="End" style="ellipse;whiteSpace=wrap;html=1;" vertex="1" parent="1">
          <mxGeometry x="370" y="505" width="120" height="80" as="geometry" />
        </mxCell>
        <mxCell id="ndujK713as-puRevWrVf-7" value="" style="html=1;shadow=0;dashed=0;align=center;verticalAlign=middle;shape=mxgraph.arrows2.arrow;dy=0.6;dx=40;direction=south;notch=0;" vertex="1" parent="1">
          <mxGeometry x="400" y="110" width="70" height="100" as="geometry" />
        </mxCell>
      </root>
    </mxGraphModel>
  </diagram>
</mxfile>
